<svg version="1.1" id="Layer_1" xmlns="http://www.w3.org/2000/svg" xmlns:xlink="http://www.w3.org/1999/xlink" x="0px" y="0px"
	 width="100%" viewBox="0 0 480 480" enable-background="new 0 0 480 480" xml:space="preserve">
<path fill="#000000" opacity="1.000000" stroke="none" 
	d="
M481.000000,101.000000 
	C481.000000,227.622971 481.000000,354.245941 481.000000,480.934448 
	C321.098907,480.934448 161.197769,480.934448 1.000000,480.934448 
	C1.000000,350.310852 1.000000,219.621460 1.241114,88.637726 
	C1.906353,88.600876 2.336749,89.092667 2.753684,89.081505 
	C12.412813,88.822968 21.876747,89.751694 31.618883,86.463196 
	C49.996536,80.259750 62.360893,68.111862 70.176193,51.222889 
	C73.890411,43.196396 77.361458,35.090908 82.266266,27.761208 
	C87.528946,19.896698 84.878128,11.408437 84.959190,3.126799 
	C84.966064,2.424325 83.683525,1.709230 83.000000,0.999999 
	C188.355972,1.000000 293.711945,1.000000 399.338135,1.160759 
	C397.751587,2.527661 398.763031,3.814622 399.419952,5.187297 
	C400.933716,8.350314 402.373779,11.649617 402.603333,15.121327 
	C402.997162,21.076977 405.934113,25.877567 410.127930,29.292976 
	C419.350555,36.803688 428.524963,44.465633 438.024200,51.524673 
	C445.832428,57.327042 451.606201,63.525532 454.048370,72.768120 
	C455.673035,78.916763 458.179779,84.697647 460.762939,90.469185 
	C462.195557,93.670166 464.530823,95.529472 467.748871,97.094017 
	C472.024170,99.172577 476.838440,98.895218 481.000000,101.000000 
M291.556030,181.603653 
	C293.538818,179.821167 295.990570,178.184586 296.748657,175.645142 
	C297.847961,171.962860 300.393921,170.069977 303.615631,169.087021 
	C307.078278,168.030548 306.578064,166.345459 305.336243,163.865997 
	C304.001160,161.200211 300.924011,160.406387 299.509735,157.819641 
	C291.698547,143.532990 281.047211,131.485168 269.105225,120.618561 
	C261.943604,114.101852 254.220627,108.643990 243.354263,110.107414 
	C236.810776,110.988655 230.006592,110.718475 223.396240,110.119476 
	C215.229507,109.379448 210.314590,113.528770 206.118027,119.601700 
	C201.795868,125.856339 198.488312,132.826660 192.933334,138.224197 
	C192.007172,139.124115 191.283447,140.355194 190.800400,141.566513 
	C188.965073,146.168991 189.950500,147.586151 194.920654,147.708588 
	C198.748108,147.802902 202.578720,147.809036 206.402924,147.972061 
	C207.604630,148.023285 208.698654,148.621140 208.804337,150.048141 
	C208.893158,151.247223 208.072266,152.010757 207.038162,152.083115 
	C201.106720,152.498138 195.054840,153.610245 189.277237,152.806946 
	C186.292999,152.392044 185.263092,152.878616 183.724655,154.810532 
	C182.144531,156.794785 180.883835,158.907822 179.946350,161.236389 
	C178.828934,164.011887 176.859161,167.646866 179.426361,169.572174 
	C182.735046,172.053589 187.765381,174.494354 191.494736,172.055237 
	C196.974564,168.471252 204.118317,168.138657 208.564056,162.782089 
	C209.954849,161.106354 211.996979,161.057175 213.370178,162.735535 
	C217.067337,167.254242 219.911255,163.983994 221.582779,161.287140 
	C223.110977,158.821533 224.577042,157.289551 227.660904,157.344803 
	C225.020157,153.879272 225.025772,153.893982 218.217255,156.492401 
	C216.605057,157.107712 214.604004,158.690140 213.479935,156.231506 
	C212.542297,154.180634 214.396393,152.755707 215.971359,151.920471 
	C222.057816,148.692627 228.472000,149.092545 234.875229,150.756348 
	C238.094620,151.592850 239.286377,153.365677 237.300186,156.659576 
	C236.423111,158.114136 234.820267,159.836197 236.468826,162.249588 
	C239.097717,159.633698 242.434692,157.854630 240.213394,153.428833 
	C239.417297,151.842651 240.350769,150.596970 242.042328,149.962875 
	C246.558151,148.270126 251.304306,150.451508 253.558868,154.719101 
	C255.030548,157.504807 257.010315,160.858795 260.641968,160.375366 
	C262.982086,160.063889 264.381470,160.200043 265.772491,161.942520 
	C270.517761,167.886734 276.710144,169.999405 284.150024,168.877029 
	C285.111115,168.732040 286.153748,168.900986 287.123505,169.097565 
	C288.345215,169.345261 289.126770,170.040436 289.337555,171.429718 
	C289.875000,174.972168 291.693451,178.305649 290.356537,182.097046 
	C288.111206,181.977692 286.003113,181.579117 283.596832,182.077560 
	C279.182770,182.991959 274.987244,182.421082 271.295929,178.703918 
	C265.235687,172.601227 256.537445,169.355240 252.181824,161.308411 
	C252.071381,161.104355 251.585388,161.103561 250.972137,160.914963 
	C248.765198,162.480728 247.440704,165.629364 244.010147,165.835739 
	C240.997498,166.017014 239.287903,167.210800 239.358978,170.874161 
	C239.398499,172.911362 239.014069,176.592209 235.566315,176.212723 
	C232.372314,175.861191 229.528122,174.229492 229.874008,170.017227 
	C230.036606,168.037094 229.852890,166.020645 229.722534,164.027405 
	C229.649063,162.904129 229.654800,161.572586 227.540680,161.627777 
	C227.497101,167.021103 222.815186,168.545670 219.192520,168.797775 
	C215.571259,169.049789 213.140427,170.457397 211.050003,172.574295 
	C207.059814,176.615005 201.509628,178.483307 197.756912,182.893570 
	C195.488678,185.559235 192.132858,184.862411 188.921356,183.906403 
	C184.055664,182.457977 180.265533,179.710724 177.672333,174.537857 
	C176.488846,178.607605 180.268799,190.728989 182.555176,192.325119 
	C183.427155,192.933838 184.354370,193.062088 185.394836,192.826340 
	C195.231537,190.597778 205.190018,191.446060 215.114944,191.771271 
	C218.177429,191.871643 220.834976,193.109390 222.693588,195.815567 
	C225.547760,199.971359 234.275772,200.267715 237.253693,196.208344 
	C239.880066,192.628204 241.449799,193.549820 242.498077,197.148651 
	C243.761536,201.486267 246.458740,203.040451 250.984512,203.051712 
	C257.241608,203.067276 263.653198,201.958069 269.743103,204.564621 
	C270.651459,204.953384 271.729675,204.701874 272.423523,203.762283 
	C274.400879,201.084656 271.530243,194.629211 268.091095,194.315948 
	C265.624420,194.091263 263.201080,194.362854 260.731445,195.160812 
	C256.992218,196.368988 253.405792,198.440262 249.253830,198.002121 
	C247.919159,197.861282 246.399399,197.643204 246.219666,195.994720 
	C246.027939,194.236176 247.480423,193.677994 248.851959,193.726578 
	C252.003342,193.838196 254.651321,192.238159 257.428894,191.266113 
	C263.380707,189.183167 269.138214,188.848724 274.748291,191.978119 
	C277.281097,193.390961 279.038025,192.673920 280.918884,190.822754 
	C284.105988,187.685974 286.857178,184.025528 291.556030,181.603653 
M315.820923,184.611191 
	C314.138824,181.367462 312.550415,178.070526 310.747162,174.895599 
	C309.086334,171.971375 304.921021,171.511200 304.284668,174.319382 
	C303.289062,178.712738 299.941986,179.511597 297.177917,181.741867 
	C291.498688,186.324387 286.482697,191.737137 281.272156,196.887527 
	C279.606140,198.534317 278.559784,200.487106 278.218384,202.992966 
	C277.550568,207.894943 273.873505,210.697922 269.326721,208.944916 
	C263.908966,206.856110 258.525787,207.556564 253.098755,207.380173 
	C248.384781,207.226959 243.524704,208.237320 239.169357,204.954865 
	C239.285965,211.973129 242.042282,221.068619 245.449249,223.661362 
	C248.843750,226.244583 247.164291,228.015228 244.889389,229.347549 
	C241.760666,231.179840 238.408829,232.783188 234.961227,233.886841 
	C228.111221,236.079727 221.710480,234.012558 216.325729,229.936356 
	C211.539352,226.313110 212.157700,221.121994 214.107056,215.845230 
	C215.738342,211.429428 214.409637,209.667786 209.561523,209.444397 
	C204.072784,209.191498 198.565857,209.326202 193.066772,209.308838 
	C191.024200,209.302383 188.947006,209.241959 187.688889,207.333694 
	C184.443115,202.410736 179.288132,199.081497 176.905304,193.323914 
	C174.995316,188.708817 172.970688,188.638870 169.510208,192.274414 
	C164.895004,197.123108 160.799606,202.320190 155.628418,206.817062 
	C150.112244,211.613922 145.654297,217.755157 139.617004,222.255219 
	C132.878494,227.277939 130.428741,235.621262 125.095322,241.745163 
	C114.178345,254.280136 104.226166,266.979675 99.481300,283.709625 
	C95.575066,297.482635 88.772087,310.416321 86.656174,324.873962 
	C84.550446,339.261871 83.847572,353.593323 87.283684,367.831085 
	C89.136909,375.510040 90.865395,376.587524 98.713219,376.588959 
	C195.372437,376.606689 292.031647,376.620209 388.690857,376.633698 
	C389.857361,376.633850 391.024231,376.597931 392.190338,376.615875 
	C395.284851,376.663422 396.484894,375.171143 396.823395,372.070221 
	C397.260071,368.070038 395.657928,364.581055 394.852142,360.901642 
	C392.319336,349.335785 389.525848,337.868195 384.847778,326.891876 
	C381.822418,319.793457 379.706787,312.325500 377.502930,304.897064 
	C375.408905,297.838776 373.801392,290.565338 369.163452,284.321533 
	C364.970428,278.676727 360.527863,273.117706 358.633392,265.899902 
	C356.849915,259.105103 353.973633,252.681778 350.317566,246.463058 
	C345.349426,238.012573 339.139069,230.374268 334.587189,221.720261 
	C328.251862,209.675476 322.274841,197.442200 315.820923,184.611191 
M388.756714,326.253387 
	C390.814178,329.121063 390.321075,333.399628 393.471008,336.065155 
	C395.221436,333.670593 393.582642,332.408539 393.058289,330.959747 
	C391.897797,327.753326 390.249786,324.642120 389.629028,321.336517 
	C387.577820,310.413727 385.712372,299.446838 380.329865,289.545319 
	C377.597198,284.518250 374.805939,279.378357 368.727356,276.202423 
	C371.883209,282.502380 376.243164,287.160431 378.087494,293.316071 
	C381.336334,304.159088 384.897156,314.908630 388.756714,326.253387 
M191.833313,204.309830 
	C198.070648,205.534470 204.361633,204.654266 210.626526,204.757889 
	C213.514267,204.805649 216.829315,204.519821 217.179214,200.968628 
	C217.501495,197.697952 213.828934,197.921158 211.814774,196.794495 
	C211.009064,196.343826 209.892700,196.418228 208.911179,196.317230 
	C203.378067,195.747849 198.181366,197.888870 192.771179,198.437668 
	C189.465317,198.773026 189.059143,201.290680 191.833313,204.309830 
M365.670868,267.667511 
	C365.232025,266.594604 365.527435,265.022980 363.149231,264.681854 
	C364.848907,267.137848 363.517487,270.181519 365.846558,272.267426 
	C367.745392,270.704590 366.250610,269.492218 365.670868,267.667511 
M359.751831,253.737213 
	C357.262848,257.108887 361.370697,257.932465 361.778503,260.186371 
	C362.716431,257.574402 361.635956,255.640411 359.751831,253.737213 
z"/>
<path fill="#000000" opacity="1.000000" stroke="none" 
	d="
M118.235291,308.585724 
	C129.387009,307.630798 139.860886,304.509247 151.100632,306.871277 
	C160.239853,308.791962 169.989868,308.749298 179.344757,306.336334 
	C181.493423,305.782135 183.203049,306.274506 185.051315,307.210022 
	C195.416656,312.456757 205.847504,317.575073 216.179611,322.885834 
	C219.077545,324.375397 220.989014,323.881805 223.738678,321.991913 
	C233.606888,315.209381 240.917267,305.837494 249.461288,297.728424 
	C251.146637,296.128906 252.708786,293.457520 255.571579,296.442932 
	C258.153839,299.135803 256.954742,301.230255 254.841125,303.277252 
	C252.596954,305.450684 250.769287,308.139130 247.407990,308.920319 
	C246.008606,309.245575 244.929337,310.296051 245.601791,311.888916 
	C246.179550,313.257507 247.583084,312.957275 248.674881,312.633392 
	C251.514221,311.791016 254.329285,310.706390 256.984039,313.852539 
	C254.331116,316.764343 250.675858,317.806763 247.572052,317.719513 
	C239.092911,317.481140 236.469803,324.257111 232.048676,328.530426 
	C232.629776,331.032654 234.479507,330.989899 235.693649,331.676117 
	C242.048752,335.268097 244.526154,339.633850 243.821259,346.601654 
	C243.584244,348.944427 242.206757,351.432648 240.128128,351.335388 
	C236.622208,351.171356 235.154694,353.449799 233.118591,355.275665 
	C228.889099,359.068329 222.750351,358.285431 218.246170,361.427521 
	C211.105240,366.409027 202.843857,364.744415 194.965210,365.439514 
	C190.523270,365.831390 187.041992,368.648438 183.271530,370.675659 
	C182.285095,371.206024 181.638794,372.394440 179.534348,371.988800 
	C178.158371,363.415619 171.936447,358.668976 163.839157,355.175690 
	C163.051910,357.921875 161.911850,360.878632 158.894119,357.269775 
	C151.613052,348.562531 141.427612,343.754883 132.524857,337.221375 
	C124.939697,331.654724 117.551361,325.819885 109.939117,319.999115 
	C111.517235,316.787933 113.318214,317.150696 115.499542,318.901825 
	C117.241615,320.300354 118.473656,322.578369 121.514709,322.518860 
	C122.060722,319.344086 119.308449,318.291138 117.774712,316.729950 
	C114.996239,313.901733 114.571983,311.396240 118.235291,308.585724 
M175.464371,327.933441 
	C173.579071,329.217285 171.601974,330.422455 171.010696,332.549072 
	C171.724564,334.351471 173.133041,334.668854 174.259232,335.307709 
	C181.740326,339.551117 189.980713,342.358368 196.948593,347.638611 
	C198.441559,348.769989 200.876770,351.239899 202.654648,349.784760 
	C207.018692,346.212952 209.201828,349.461548 211.848404,351.865021 
	C213.608673,353.463715 215.337509,354.422638 216.966019,352.161194 
	C217.146820,350.067139 214.660172,349.214417 215.662125,347.017609 
	C219.066223,344.544250 222.492126,351.782196 226.104385,347.462036 
	C225.421310,345.903137 222.616714,346.188324 223.273666,343.629364 
	C224.356613,341.891724 226.295273,342.245270 228.064178,342.007507 
	C229.888153,341.762360 231.524399,343.382782 233.128723,342.609833 
	C234.355255,341.802429 234.126724,340.673126 234.482742,339.777679 
	C234.817337,338.936096 235.377457,338.184235 235.816956,337.429626 
	C229.977875,332.706451 229.978592,332.707062 225.260666,338.305420 
	C224.270538,339.480316 223.112335,340.852814 221.510910,339.804657 
	C219.326736,338.374969 218.208603,339.862305 216.757782,340.939423 
	C211.738297,344.665741 206.620209,347.544739 200.728088,342.449768 
	C199.439087,341.335205 197.717606,340.537964 196.127762,340.770264 
	C190.306473,341.620880 187.340958,338.005951 183.622849,334.416870 
	C181.282562,332.157806 181.218277,326.847687 175.464371,327.933441 
M200.684311,330.899689 
	C201.438110,328.377502 201.417084,325.911469 198.160538,325.689789 
	C194.183655,325.419067 191.123428,323.029724 187.552963,321.880371 
	C186.293335,321.474854 184.787094,321.202789 184.687485,319.549469 
	C184.562042,317.467712 186.356064,317.409790 187.757904,317.001221 
	C188.523529,316.778046 189.450302,316.728790 189.454575,315.585297 
	C185.796158,313.870514 185.426712,313.966980 183.261444,317.202301 
	C181.015656,320.557983 178.803894,320.387207 176.958740,316.715729 
	C174.530914,311.884857 167.426346,310.513367 161.683212,314.482574 
	C167.676895,316.765686 170.223557,325.296204 178.562714,321.382019 
	C178.790573,321.275055 179.399033,321.439941 179.472870,321.622467 
	C181.434906,326.473419 191.701920,324.612335 188.969391,333.313843 
	C188.902420,333.527100 189.859833,334.062042 191.002396,334.978973 
	C192.440048,328.553711 197.116791,332.530487 200.684311,330.899689 
M162.308167,326.664612 
	C164.937698,326.183990 165.388336,324.220520 165.857880,321.877350 
	C163.562424,321.460052 161.487061,324.834015 159.781906,322.005371 
	C157.144135,317.629730 151.228348,316.912842 149.015991,312.068604 
	C148.682846,311.339142 147.420334,310.867950 146.495193,310.612579 
	C144.983536,310.195312 143.450821,310.415405 142.456100,311.802917 
	C141.272354,313.454041 142.343491,314.437378 143.578568,315.524292 
	C148.959747,320.259796 154.975266,323.932892 162.308167,326.664612 
M171.885468,345.705109 
	C179.061508,349.469177 186.496094,352.559662 195.247314,355.442993 
	C191.319504,350.245148 171.706268,341.686981 166.908005,342.620605 
	C168.520187,343.655212 169.880905,344.528442 171.885468,345.705109 
M211.099777,331.001953 
	C212.248703,331.839233 213.397629,332.676483 214.517853,333.492859 
	C219.221710,330.247101 219.212036,329.492889 214.530746,327.041504 
	C213.513611,326.508881 212.553177,325.824188 211.482925,325.446991 
	C209.857712,324.874207 208.203201,323.461060 206.427979,325.027252 
	C205.106247,326.193359 205.391739,327.651154 205.866882,329.142700 
	C206.676193,331.683319 208.778305,330.683746 211.099777,331.001953 
M182.232132,360.172241 
	C180.289993,359.163879 178.347839,358.155548 176.405685,357.147217 
	C179.789215,359.023132 178.819733,367.058289 186.330353,364.430084 
	C184.746948,362.711060 183.757568,361.636902 182.232132,360.172241 
M156.061691,340.738770 
	C157.639938,339.737061 159.522568,338.539581 158.478912,336.488922 
	C157.568909,334.700897 155.865814,333.161835 152.623627,333.914429 
	C154.900711,336.015503 151.750824,339.513733 156.061691,340.738770 
M207.409042,354.034790 
	C205.350235,354.659698 205.437744,356.147980 205.519623,358.198822 
	C207.696472,357.192688 210.920029,357.386902 207.409042,354.034790 
z"/>
<path fill="#000000" opacity="1.000000" stroke="none" 
	d="
M217.613007,269.804932 
	C213.692993,269.238800 210.122559,268.676392 206.647934,267.753418 
	C205.251968,267.382599 203.635880,266.093231 203.756851,264.613770 
	C204.276398,258.260345 198.938232,256.640900 195.278549,253.695023 
	C194.065140,252.718323 191.684372,252.465164 192.780579,250.237106 
	C193.774338,248.217300 195.933975,248.669205 197.666977,249.198288 
	C198.719147,249.519547 199.692032,250.323792 200.525208,251.099380 
	C203.730576,254.083252 205.977539,254.775162 209.249969,250.391815 
	C213.987442,244.046082 221.946487,244.345444 227.429596,249.919632 
	C230.413742,252.953323 234.461777,253.445251 238.467346,253.757248 
	C245.031815,254.268585 251.734039,253.593765 257.966797,256.669220 
	C259.792877,257.570282 261.525665,258.262329 260.658661,260.516602 
	C259.717468,262.963745 257.982178,261.574585 256.553589,260.854065 
	C251.866135,258.489929 246.864166,258.990265 241.893402,259.204285 
	C240.705292,259.255432 239.547256,259.473999 238.865585,260.604126 
	C235.183365,266.708954 229.346375,268.390533 222.740250,268.421997 
	C221.024750,268.430176 219.448349,268.742767 217.613007,269.804932 
z"/>
<path fill="#000000" opacity="1.000000" stroke="none" 
	d="
M188.740265,276.263062 
	C198.522247,282.977844 208.571060,288.808472 220.426331,288.510773 
	C227.059708,288.344208 233.721329,286.282166 240.148697,284.122742 
	C241.246521,283.753906 242.354904,283.212219 243.476501,283.163116 
	C245.505371,283.074219 248.433472,282.200592 248.765030,285.178467 
	C249.043533,287.679993 246.243408,287.086670 244.594025,287.537994 
	C238.879913,289.101471 233.427658,291.703217 227.325775,291.746735 
	C226.601624,291.751923 225.766449,292.362366 225.182358,292.906494 
	C223.155396,294.794800 221.653534,297.117981 218.246353,297.162354 
	C212.189316,297.241211 206.307938,296.773560 200.743164,294.214752 
	C200.164871,293.948853 199.383301,293.433167 199.284454,292.920013 
	C197.737457,284.887543 189.751953,284.236145 184.713547,280.256226 
	C182.951279,278.864136 181.916977,277.856140 183.579910,275.935272 
	C185.179047,274.088104 186.911118,272.813812 188.740265,276.263062 
z"/>
<path fill="#000000" opacity="1.000000" stroke="none" 
	d="
M279.556274,150.124924 
	C275.715149,147.746597 272.018005,147.866821 268.317810,149.413940 
	C266.535767,150.159042 264.510406,151.021744 263.587463,148.802353 
	C262.458282,146.087006 265.181732,146.301819 266.713959,145.559265 
	C270.304199,143.819290 274.068359,143.749741 277.918671,143.908447 
	C280.307953,144.006943 282.002502,145.139740 283.305634,147.013092 
	C284.156799,148.236755 284.235748,149.562515 283.261292,150.695374 
	C282.064270,152.086975 280.898895,151.288971 279.556274,150.124924 
z"/>
<path fill="#000000" opacity="1.000000" stroke="none" 
	d="
M279.585754,155.787460 
	C281.406952,156.476715 282.341095,157.550629 281.141876,158.882156 
	C279.794495,160.378204 277.797302,160.114410 276.009186,159.665573 
	C274.964722,159.403412 274.268738,158.498642 274.526764,157.403839 
	C274.909088,155.781448 276.341461,155.684540 277.705017,155.655045 
	C278.200806,155.644302 278.697845,155.693832 279.585754,155.787460 
z"/>
</svg>